<svg xmlns="http://www.w3.org/2000/svg" xmlns:xlink="http://www.w3.org/1999/xlink" viewBox="144.93 95.15 806.72 296.98"><defs><style>.cls-1{isolation:isolate;}.cls-2{fill:url(#linear-gradient);}.cls-3{fill:url(#linear-gradient-2);}.cls-4{fill:url(#linear-gradient-3);}.cls-5{fill:url(#linear-gradient-4);}.cls-6{fill:url(#linear-gradient-5);}.cls-7{opacity:0.82;fill:url(#linear-gradient-6);}.cls-8{opacity:0.65;mix-blend-mode:screen;fill:url(#linear-gradient-7);}</style><linearGradient id="linear-gradient" x1="577.89" y1="-304.43" x2="730.51" y2="350.34" gradientUnits="userSpaceOnUse"><stop offset="0.59" stop-color="#f8f8ff"/><stop offset="0.86" stop-color="#6366f1"/><stop offset="0.98" stop-color="#22d3ee"/></linearGradient><linearGradient id="linear-gradient-2" x1="454.7" y1="302.06" x2="410.4" y2="38.68" gradientUnits="userSpaceOnUse"><stop offset="0.35" stop-color="#6366f1"/><stop offset="0.57" stop-color="#22d3ee"/><stop offset="1" stop-color="#f8f8ff"/></linearGradient><linearGradient id="linear-gradient-3" x1="218.14" y1="414.66" x2="216.44" y2="90.94" gradientUnits="userSpaceOnUse"><stop offset="0.46" stop-color="#3632c9"/><stop offset="1" stop-color="#e6e3fd"/></linearGradient><linearGradient id="linear-gradient-4" x1="196.86" y1="0.98" x2="229.96" y2="388.48" gradientUnits="userSpaceOnUse"><stop offset="0.25" stop-color="#22d3ee"/><stop offset="0.46" stop-color="#6366f1"/></linearGradient><linearGradient id="linear-gradient-5" x1="420.45" y1="148.97" x2="139.13" y2="413.74" gradientUnits="userSpaceOnUse"><stop offset="0.14" stop-color="#61d4f9"/><stop offset="0.33" stop-color="#6366f1"/><stop offset="0.47" stop-color="#6366f1"/></linearGradient><linearGradient id="linear-gradient-6" x1="218.21" y1="426.81" x2="216.5" y2="103.1" gradientUnits="userSpaceOnUse"><stop offset="0.26" stop-color="#3672c9"/><stop offset="0.46" stop-color="#3632c9"/><stop offset="1" stop-color="#e6e3fd"/></linearGradient><linearGradient id="linear-gradient-7" x1="342.03" y1="148.48" x2="283.19" y2="389.35" gradientUnits="userSpaceOnUse"><stop offset="0.08" stop-color="#90c7f9"/><stop offset="0.3" stop-color="#4fc7f9"/><stop offset="0.74" stop-color="#4640ce"/></linearGradient></defs><title>Horizontal lockup dark- SVG</title><g class="cls-1"><g id="Layer_1" data-name="Layer 1"><path class="cls-2" d="M579,110.38V219.64H571.7l-64.47-94v94H499V110.38h7.18l64.62,94v-94Zm23.26,6.09a6.25,6.25,0,1,1,6.24,6.24A6.23,6.23,0,0,1,602.29,116.47Zm2.34,25.12h7.81v78h-7.81Zm104.58,2.66c0,19.2-14.36,33.71-34,33.71H646.31v41.68H638V110.38h37.15C694.85,110.38,709.21,124.89,709.21,144.25Zm-8.28,0c0-15.14-10.77-26.07-25.75-26.07H646.31v52h28.87C690.16,170.16,700.93,159.23,700.93,144.25Zm97.56-2.66v78h-8V202C784,213.71,772,221.35,757,221.35a40.74,40.74,0,0,1,0-81.47c15,0,27,7.65,33.56,19.35V141.59Zm-8,39c0-18.58-14.36-33.25-32.94-33.25a33.25,33.25,0,0,0,0,66.49C776.17,213.86,790.53,199.19,790.53,180.62ZM520.66,350H497.24V236.17H547.5c23.73,0,36.68,12.49,36.68,35.27,0,23.1-13.42,37.93-34.34,37.93H520.66Zm21.85-60.09c12.48,0,18.26-5.46,18.26-17.17,0-11.55-5.78-17-18.26-17H520.66v34.18ZM619.93,350H598.07V236.17h21.86Zm92.87,0H689.07c-2-2.49-2.5-4.06-2.5-8.43-7.8,8.12-16.23,12-25.59,12-15.45,0-25.6-10.14-25.6-25.28s8.12-23.73,24.82-26.54l8.74-1.56c10.77-1.71,10.77-1.71,13.73-3.28a7.46,7.46,0,0,0,3.75-6.55q0-8.43-12.64-8.43c-10.77,0-14.36,2.81-15.46,11.55H637.25c1.41-19.51,13.27-29.19,36.06-29.19S707.8,273,707.8,290.17V337c0,4.21,1.25,6.71,5,10.3Zm-26.38-39.8c-2.5,1.25-3.43,1.56-9.21,2.65l-7.49,1.41c-9.06,1.87-12.49,5-12.49,11.55,0,6.24,4.53,10.14,11.86,10.14,11.09,0,17.33-7.18,17.33-19.82ZM798.8,265.67,764.15,365.4c-3.59,10.15-6.24,13.58-12.33,16.08a46.86,46.86,0,0,1-15.76,2.65,48.66,48.66,0,0,1-7.81-.62V367.12a23.94,23.94,0,0,0,5.78.94c8.11,0,13.58-5.93,13.58-14.67l-31.38-87.72h24L758.84,327l17.48-61.34Zm25.6,49c.31,8,1.09,11.7,3.12,14.83,3.12,4.68,8.12,7.33,14.36,7.33,8,0,14-3.9,16.7-10.61h21.54c-4.84,16.7-20.13,27.31-39,27.31-23.88,0-38.55-16.54-38.55-43.54,0-28.26,14.83-45.74,39-45.74,17,0,30.59,9.21,36.21,24.51a70.53,70.53,0,0,1,3.28,22.16,36.3,36.3,0,0,1-.16,3.75Zm33.87-14.52c-1.09-12.48-7-19.2-17-19.2-9.68,0-15.14,6.25-16.55,19.2Zm59.31-34.49v16.54c4.84-11.39,13.43-17.95,23.42-17.95a16.61,16.61,0,0,1,2.65.16v22.16a38.34,38.34,0,0,0-6.87-.62q-19.2,0-19.2,19.2V350H895.73V265.67Z"/><path class="cls-3" d="M444.45,351.11h-3.53v-241h3.53Z"/><path class="cls-4" d="M281.54,177.69q0-8.83,0-17.65a13.1,13.1,0,0,0-6.63-11.73q-7.92-4.86-15.82-9.75l-9.32-5.75q-8.07-5-16.13-10l-.1-.06c-7.72-4.76-15.72-9.67-23.61-14.44a28,28,0,0,0-6-3,43,43,0,0,0-13-2.12c-9,0-17.44,3.27-25,9.7-8.63,7.34-13,17-13,28.63v96.13q0,39.79,0,79.6a41.8,41.8,0,0,0,4.18,18.62c5.9,12,15.7,19.66,29.12,22.7a43,43,0,0,0,9.78.95c1.91,0,3.83-.08,5.69-.14h.25c4-.15,6.83-3.16,7-7.35,0-.7,0-1.4,0-2.1V263.09a.86.86,0,0,0,0-.23v-9.63q0-39.43,0-78.86a6.38,6.38,0,0,1,.17-1.7,2.45,2.45,0,0,1,2.36-1.89,2.76,2.76,0,0,1,.92.17,6.32,6.32,0,0,1,1,.57,3,3,0,0,0,.38.24l12.87,8.1,8.84,5.57q8.49,5.35,17,10.69c6.49,4.07,13,8.08,18,11.13a8.13,8.13,0,0,0,2.87,1.18,7.64,7.64,0,0,0,1.26.1,6.7,6.7,0,0,0,4.75-2,8,8,0,0,0,2.22-5.7C281.52,193.14,281.53,185.28,281.54,177.69Zm-8,29.26a6.84,6.84,0,0,1-2.34-1q-9-5.53-18-11.12-12.31-7.71-24.6-15.48l-14.11-8.88a8.65,8.65,0,0,0-1.67-.95,3.93,3.93,0,0,0-5.22,2.71,7.8,7.8,0,0,0-.22,2.11q0,44.35,0,88.72h0v86.37c0,.85,0,1.71,0,2.56-.12,3.34-2.27,5.8-5.55,5.91-5.12.19-10.28.4-15.33-.75-12.78-2.9-22.28-10-28.11-21.91a40.11,40.11,0,0,1-4-18q0-50.24,0-100.48,0-37.62,0-75.25c0-11.06,4.09-20.37,12.46-27.49,10.75-9.15,23.09-11.58,36.59-7.3a27.16,27.16,0,0,1,5.71,2.84q11.9,7.19,23.7,14.49c8.5,5.22,17,10.48,25.45,15.71l15.82,9.75A11.68,11.68,0,0,1,280.05,160c0,13.61-.06,27.22,0,40.84C280.09,204.52,277.41,207.6,273.58,207Z"/><path class="cls-5" d="M270.46,207.25a8.13,8.13,0,0,0,2.87,1.18,7.64,7.64,0,0,0,1.26.1,6.7,6.7,0,0,0,4.75-2,8,8,0,0,0,2.22-5.7c0-7.73,0-15.59,0-23.18q0-8.83,0-17.65a13.1,13.1,0,0,0-6.63-11.73q-7.92-4.86-15.82-9.75l-9.32-5.75q-8.07-5-16.13-10l-.1-.06c-7.72-4.76-15.72-9.67-23.61-14.44a28,28,0,0,0-6-3,43,43,0,0,0-13-2.12c-9,0-17.44,3.27-25,9.7-8.63,7.34-13,17-13,28.63v96.13q0,39.79,0,79.6a41.8,41.8,0,0,0,4.18,18.62c5.9,12,15.7,19.66,29.12,22.7a43,43,0,0,0,9.78.95c1.91,0,3.83-.08,5.69-.14h.25c4-.15,6.83-3.16,7-7.35,0-.7,0-1.4,0-2.1V263.09a.86.86,0,0,0,0-.23v-9.63q0-39.43,0-78.86a6.38,6.38,0,0,1,.17-1.7,2.45,2.45,0,0,1,2.36-1.89,2.76,2.76,0,0,1,.92.17,6.32,6.32,0,0,1,1,.57,3,3,0,0,0,.38.24l12.87,8.1,8.84,5.57q8.49,5.35,17,10.69C258.94,200.19,265.49,204.2,270.46,207.25Z"/><path class="cls-6" d="M400.61,239a33.89,33.89,0,0,0-15.82-23.86C372,207.09,358.86,199,346.18,191.21l-11.2-6.9c-8.35-5.16-17.19-10.57-26.26-16.08A8.35,8.35,0,0,0,304.4,167c-4,0-7,3.2-7,7.43,0,15-.05,27.47,0,40.43a12.06,12.06,0,0,0,6.07,10.64c9.49,5.84,19.08,11.81,28.87,17.9a2.84,2.84,0,0,1,1.52,2.26,2.8,2.8,0,0,1-1.52,2.26l-33.72,21.06-6.28,3.89-.88.54v-6.7c0-5.37,0-10.74,0-16.12a11.84,11.84,0,0,0-5.76-10.39c-9.21-5.8-18.62-11.61-27.73-17.23l-1.86-1.15a12,12,0,0,0-6.3-1.81,11.85,11.85,0,0,0-10.71,6.91,13.31,13.31,0,0,0-1.22,5.77q0,18.72,0,37.43V306q0,20.61,0,41.22a14.68,14.68,0,0,0,1,5.81,10.18,10.18,0,0,0,9.24,6.43,9.34,9.34,0,0,0,3.09-.53,15,15,0,0,0,3.17-1.71c.27-.19.55-.37.82-.54q12.6-7.86,25.2-15.73l16.15-10.12q10.65-6.69,21.33-13.37,6.88-4.32,13.81-8.6l11.41-7.09L377,280.6c1-.63,2.05-1.24,3.05-1.83a54.53,54.53,0,0,0,7.17-4.74C398.4,264.85,402.89,253.07,400.61,239Z"/><path class="cls-7" d="M281.54,177.69q0-8.83,0-17.65a13.1,13.1,0,0,0-6.63-11.73q-7.92-4.86-15.82-9.75l-9.32-5.75q-8.07-5-16.13-10l-.1-.06c-7.72-4.76-15.72-9.67-23.61-14.44a28,28,0,0,0-6-3,43,43,0,0,0-13-2.12c-9,0-17.44,3.27-25,9.7-8.63,7.34-13,17-13,28.63v96.13q0,39.79,0,79.6a41.8,41.8,0,0,0,4.18,18.62c5.9,12,15.7,19.66,29.12,22.7a43,43,0,0,0,9.78.95c1.91,0,3.83-.08,5.69-.14h.25c4-.15,6.83-3.16,7-7.35,0-.7,0-1.4,0-2.1V263.09a.86.86,0,0,0,0-.23v-9.63q0-39.43,0-78.86a6.38,6.38,0,0,1,.17-1.7,2.45,2.45,0,0,1,2.36-1.89,2.76,2.76,0,0,1,.92.17,6.32,6.32,0,0,1,1,.57,3,3,0,0,0,.38.24l12.87,8.1,8.84,5.57q8.49,5.35,17,10.69c6.49,4.07,13,8.08,18,11.13a8.13,8.13,0,0,0,2.87,1.18,7.64,7.64,0,0,0,1.26.1,6.7,6.7,0,0,0,4.75-2,8,8,0,0,0,2.22-5.7C281.52,193.14,281.53,185.28,281.54,177.69Zm-8,29.26a6.84,6.84,0,0,1-2.34-1q-9-5.53-18-11.12-12.31-7.71-24.6-15.48l-14.11-8.88a8.65,8.65,0,0,0-1.67-.95,3.93,3.93,0,0,0-5.22,2.71,7.8,7.8,0,0,0-.22,2.11q0,44.35,0,88.72h0v86.37c0,.85,0,1.71,0,2.56-.12,3.34-2.27,5.8-5.55,5.91-5.12.19-10.28.4-15.33-.75-12.78-2.9-22.28-10-28.11-21.91a40.11,40.11,0,0,1-4-18q0-50.24,0-100.48,0-37.62,0-75.25c0-11.06,4.09-20.37,12.46-27.49,10.75-9.15,23.09-11.58,36.59-7.3a27.16,27.16,0,0,1,5.71,2.84q11.9,7.19,23.7,14.49c8.5,5.22,17,10.48,25.45,15.71l15.82,9.75A11.68,11.68,0,0,1,280.05,160c0,13.61-.06,27.22,0,40.84C280.09,204.52,277.41,207.6,273.58,207Z"/><path class="cls-8" d="M400.61,239a33.89,33.89,0,0,0-15.82-23.86C372,207.09,358.86,199,346.18,191.21l-11.2-6.9c-8.35-5.16-17.19-10.57-26.26-16.08A8.35,8.35,0,0,0,304.4,167c-4,0-7,3.2-7,7.43,0,15-.05,27.47,0,40.43a12.06,12.06,0,0,0,6.07,10.64c9.49,5.84,19.08,11.81,28.87,17.9a2.84,2.84,0,0,1,1.52,2.26,2.8,2.8,0,0,1-1.52,2.26l-33.72,21.06-6.28,3.89-.88.54v-6.7c0-5.37,0-10.74,0-16.12a11.84,11.84,0,0,0-5.76-10.39c-9.21-5.8-18.62-11.61-27.73-17.23l-1.86-1.15a12,12,0,0,0-6.3-1.81,11.85,11.85,0,0,0-10.71,6.91,13.31,13.31,0,0,0-1.22,5.77q0,18.72,0,37.43V306q0,20.61,0,41.22a14.68,14.68,0,0,0,1,5.81,10.18,10.18,0,0,0,9.24,6.43,9.34,9.34,0,0,0,3.09-.53,15,15,0,0,0,3.17-1.71c.27-.19.55-.37.82-.54q12.6-7.86,25.2-15.73l16.15-10.12q10.65-6.69,21.33-13.37,6.88-4.32,13.81-8.6l11.41-7.09L377,280.6c1-.63,2.05-1.24,3.05-1.83a54.53,54.53,0,0,0,7.17-4.74C398.4,264.85,402.89,253.07,400.61,239ZM386.3,272.88c-3.06,2.51-6.69,4.33-10.07,6.45q-17,10.59-33.89,21.19c-8.41,5.24-16.83,10.44-25.22,15.69q-18.76,11.73-37.48,23.5-12.58,7.88-25.2,15.73a20.23,20.23,0,0,1-3.69,2.1c-4.17,1.45-8.65-.78-10.46-5.08a13.18,13.18,0,0,1-.92-5.21q0-29.83,0-59.66,0-27.48,0-54.94a11.94,11.94,0,0,1,1.08-5.13,10.29,10.29,0,0,1,14.87-4.47c9.88,6.1,19.77,12.19,29.59,18.38a10.4,10.4,0,0,1,5.06,9.13c0,7.63,0,15.26,0,22.88v0a1.44,1.44,0,0,0,2.21,1.22c2.54-1.57,4.89-3,7.23-4.48l33.72-21c3-1.84,3-5.21,0-7.05q-14.42-9-28.88-17.91a10.51,10.51,0,0,1-5.36-9.38c-.07-13.47,0-26.94,0-40.42,0-5,4.74-7.51,9.07-4.88q13.16,8,26.24,16.07C350.81,195.82,367.46,206,384,216.41a32.3,32.3,0,0,1,15.13,22.84C401.33,252.79,396.89,264.16,386.3,272.88Z"/></g></g></svg>